<?xml version="1.0" encoding="utf-8"?>
<!-- Generator: Adobe Illustrator 24.1.1, SVG Export Plug-In . SVG Version: 6.00 Build 0)  -->
<svg version="1.1" id="Layer_1" xmlns="http://www.w3.org/2000/svg" xmlns:xlink="http://www.w3.org/1999/xlink" x="0px" y="0px"
	 viewBox="0 0 24 24" style="enable-background:new 0 0 24 24;" xml:space="preserve">
<style type="text/css">
	.st0{fill-rule:evenodd;clip-rule:evenodd;fill:#FFFFFF;}
</style>
<path class="st0" d="M12,0c6.6,0,12,5.4,12,12s-5.4,12-12,12S0,18.6,0,12S5.4,0,12,0 M14.6,16H9.4c0.5,2.5,1.4,4.1,2.6,5.7
	C13.2,20,14,18.3,14.6,16 M7.4,16H2.8c1.2,2.8,3.7,5,6.8,5.7C8.5,20,7.8,18.1,7.4,16 M21.2,16h-4.6c-0.4,2-1.1,3.9-2.2,5.7
	C17.4,20.9,19.9,18.8,21.2,16 M7.2,10h-5c-0.3,1.3-0.3,2.7,0,4h4.9C7,12.7,7,11.3,7.2,10 M14.8,10H9.2C9,11.3,9,12.7,9.1,14h5.8
	C15,12.7,15,11.3,14.8,10 M21.8,10h-5c0.1,1.3,0.2,2.7,0,4h4.9C22.1,12.7,22.1,11.4,21.8,10 M9.6,2.3C6.6,3,4.1,5.2,2.8,8h4.7
	C7.9,6,8.7,4,9.6,2.3 M12,2.2C10.9,4,10.1,5.7,9.5,8h4.9C13.9,5.8,13.1,4.1,12,2.2 M14.4,2.3c1,1.8,1.7,3.8,2.1,5.7h4.7
	C19.9,5.2,17.4,3,14.4,2.3"/>
</svg>
